<?xml version="1.0" encoding="UTF-8"?>
<svg version="1.1" xmlns="http://www.w3.org/2000/svg" width="1563" height="1563">
<path d="M0 0 C43.83934553 13.15180366 78.06835357 43.94826397 99.83203125 83.73388672 C101.72829394 87.41304857 103.38564256 91.19013898 105 95 C107.68556848 91.80495068 109.44277586 88.30509561 111.31030273 84.60400391 C122.5930758 62.26723696 138.33664161 43.48191744 158 28 C158.92683594 27.25621094 159.85367188 26.51242187 160.80859375 25.74609375 C175.99856812 13.89502827 193.46248749 5.05568523 212 0 C212 8.91 212 17.82 212 27 C208.844375 28.44375 205.68875 29.8875 202.4375 31.375 C168.93838151 47.16015538 140.97139493 75.16138404 127.9921875 110.25 C121.66707391 128.24564447 118.81590826 145.34925208 118.96923828 164.41455078 C118.97767857 165.961148 118.98551001 167.50774865 118.99278259 169.05435181 C119.00449942 171.51759431 119.01667991 173.98082741 119.03075147 176.4440577 C119.06545333 182.54059612 119.08149145 188.63698007 119.08639526 194.73361206 C119.08712795 195.62094123 119.08786064 196.5082704 119.08861554 197.42248833 C119.0912773 201.07734739 119.09332401 204.73220654 119.0950911 208.38706613 C119.10088002 218.74552573 119.12484755 229.10323111 119.20214844 239.46142578 C119.26356692 247.70792348 119.28621209 255.95349725 119.26333606 264.20020664 C119.25270405 268.55892139 119.26162078 272.91561159 119.31766129 277.27402115 C119.36990929 281.37085624 119.37065481 285.46450083 119.33229256 289.56145859 C119.32730805 291.06148917 119.34103965 292.56172048 119.37517738 294.06137085 C119.6145587 305.2511488 119.6145587 305.2511488 115.63833237 309.55810165 C112.73891396 311.56585875 110.39763573 313.04187488 107 314 C104.43851089 313.28806782 104.43851089 313.28806782 102 312 C101.201546 311.67759244 100.403092 311.35518488 99.58044243 311.02300739 C96.83978713 309.60418146 95.03015188 308.34163964 93 306 C91.6574994 300.98932266 91.83292216 296.04148354 91.93408203 290.90112305 C91.93166771 289.35147523 91.92525151 287.80182927 91.91514587 286.25221252 C91.90206802 282.91878102 91.91739325 279.5871241 91.95492935 276.25388145 C92.01442565 270.96826386 92.01149487 265.68377725 92.0007019 260.39790344 C91.99114621 252.02090543 92.02477101 243.64470749 92.07607162 235.26788217 C92.16631677 220.31231146 92.18394787 205.35656907 92.18526542 190.40075523 C92.18742439 185.16340236 92.20825223 179.92656726 92.24545598 174.68934953 C92.26634868 171.40534036 92.27496483 168.12136773 92.28108406 164.83730125 C92.28658397 163.33344102 92.29721899 161.82958762 92.31386757 160.32580948 C92.47453966 145.41284062 90.28593242 131.27240158 85.4375 117.125 C85.09235352 116.11179687 84.74720703 115.09859375 84.39160156 114.0546875 C70.45555775 74.61258661 41.01534543 46.74183798 4 29 C2.68 28.34 1.36 27.68 0 27 C0 18.09 0 9.18 0 0 Z " fill="#9F7222" transform="translate(676,552)"/>
<path d="M0 0 C0 8.58 0 17.16 0 26 C-4.6096875 27.794375 -4.6096875 27.794375 -9.3125 29.625 C-21.22100984 34.36002066 -31.22874517 39.62242653 -41 48 C-42.23556641 48.99966797 -42.23556641 48.99966797 -43.49609375 50.01953125 C-61.77979331 65.39381216 -72.66330588 89.68542577 -76 113 C-76.26461961 116.71504171 -76.30071355 120.41317706 -76.30297852 124.13671875 C-76.31141785 125.19045181 -76.31985718 126.24418488 -76.32855225 127.32984924 C-76.35414861 130.78240468 -76.36643689 134.23487449 -76.37890625 137.6875 C-76.39511251 140.11491545 -76.41229569 142.54232456 -76.43040466 144.96972656 C-76.47594683 151.34752425 -76.51080264 157.72533107 -76.54260254 164.10321045 C-76.59456655 174.28002769 -76.66043973 184.45674893 -76.73081779 194.63345337 C-76.75331613 198.15756423 -76.76980758 201.68166387 -76.78553772 205.20581055 C-76.81321019 210.49842136 -76.86729329 215.78991939 -76.95283699 221.0819149 C-76.98403041 223.01192407 -77.01015875 224.9420224 -77.03097343 226.8721714 C-77.0663274 229.51677323 -77.13401516 232.15838568 -77.21289062 234.80200195 C-77.2190165 235.56833199 -77.22514238 236.33466202 -77.2314539 237.12421417 C-77.38573373 240.98007315 -77.84987578 242.81175184 -80.28344727 245.86332703 C-83.04486045 248.08274596 -85.76195661 249.62253827 -88.9375 251.1875 C-89.96552734 251.76951172 -90.99355469 252.35152344 -92.05273438 252.95117188 C-99.33297668 257 -99.33297668 257 -102 257 C-102.09381562 237.88373073 -102.16416037 218.76750876 -102.20724869 199.65105629 C-102.22779513 190.77315152 -102.25576249 181.89539054 -102.30175781 173.01757812 C-102.34186999 165.27155208 -102.3674902 157.52563026 -102.37635398 149.77950323 C-102.38152788 145.68531522 -102.39351889 141.59142517 -102.42292023 137.49733353 C-102.64755257 104.95744617 -102.64755257 104.95744617 -98 90 C-97.53355072 88.36316757 -97.53355072 88.36316757 -97.05767822 86.69326782 C-92.76907871 72.06072701 -85.42861539 58.88704981 -76 47 C-75.55221191 46.43265137 -75.10442383 45.86530273 -74.64306641 45.28076172 C-58.563758 25.12017845 -27.67343682 0 0 0 Z " fill="#9F7222" transform="translate(914,589)"/>
<path d="M0 0 C21.83614135 4.91804985 41.03560673 13.0631212 58 28 C59.26263672 29.06347656 59.26263672 29.06347656 60.55078125 30.1484375 C83.5617246 49.97435136 98.29238983 78.97079022 102 109 C102.25988965 113.95310896 102.25450311 118.89819876 102.22705078 123.85644531 C102.22648521 125.3064727 102.22680607 126.75650065 102.22793579 128.20652771 C102.2285046 132.10450459 102.21682755 136.00235589 102.20278788 139.90030384 C102.19020106 143.9881964 102.1891038 148.07609252 102.18673706 152.16400146 C102.18054549 159.88785176 102.16416643 167.61164477 102.14403808 175.33546996 C102.12160637 184.1360564 102.11066744 192.93664571 102.10064721 201.73725367 C102.07979789 219.82486813 102.04466756 237.91242944 102 256 C100.55578674 255.14917343 100.55578674 255.14917343 99.08239746 254.28115845 C96.26618821 252.65279403 93.4191328 251.2857955 90.44592285 249.96957397 C84.4037245 247.01331522 78.4240616 243.85338282 75.98458862 237.252388 C74.50303577 229.57108126 74.7825653 221.78850527 75.03884315 214.00317812 C75.13169429 210.57603618 75.11914551 207.14920729 75.11804199 203.72103882 C75.13125057 197.23008396 75.23396678 190.74392398 75.37135839 184.25453317 C75.55299867 175.47868814 75.60830928 166.70227525 75.66665745 157.92490077 C75.68087809 155.80005886 75.69555124 153.67522092 75.71057129 151.55038452 C75.71538025 150.86000135 75.72018922 150.16961818 75.72514391 149.4583143 C75.76122565 144.75032521 75.8323827 140.04394379 75.9173584 135.33657837 C75.93671951 134.07573929 75.95608063 132.81490021 75.97602844 131.51585388 C76.01252517 129.19082649 76.05713604 126.86590271 76.11235046 124.54124451 C76.26894341 113.42983589 75.0062875 102.4541758 71.3125 91.9375 C71.05267334 91.18218994 70.79284668 90.42687988 70.52514648 89.64868164 C66.7200215 78.97918804 61.32538226 69.65424979 54 61 C53.50371094 60.35933594 53.00742187 59.71867188 52.49609375 59.05859375 C39.16121368 42.51532149 19.21232114 33.68492846 0 26 C0 17.42 0 8.84 0 0 Z " fill="#9F7222" transform="translate(649,589)"/>
<path d="M0 0 C26.12929112 5.22585822 52.23631048 26.93557236 70.45703125 45.50390625 C73.18978275 48.18628445 76.03152076 50.58379597 79 53 C79.42595459 52.55309814 79.85190918 52.10619629 80.29077148 51.64575195 C99.96780551 31.13932714 122.14119295 14.92378325 148 3 C148.62712891 2.71012207 149.25425781 2.42024414 149.90039062 2.12158203 C152.78049852 0.83005721 154.80679264 0 158 0 C158 8.91 158 17.82 158 27 C155.215625 28.4025 152.43125 29.805 149.5625 31.25 C123.93206705 44.54519128 101.25001477 64.15113214 84.48828125 87.63671875 C82.53814063 90.35167898 80.46194261 92.72255894 78 95 C77.52691406 94.33355469 77.05382812 93.66710937 76.56640625 92.98046875 C67.00496388 79.65409196 56.77959019 66.39949873 44 56 C43.00484375 55.17886719 42.0096875 54.35773437 40.984375 53.51171875 C28.24503826 43.15612293 14.56788232 34.53511155 0 27 C0 18.09 0 9.18 0 0 Z " fill="#9F7222" transform="translate(703,517)"/>
<path d="M0 0 C4.62 0 9.24 0 14 0 C19.10507631 10.04387444 23.99581299 20.15651955 28.62768555 30.42724609 C29.56301884 32.50115043 30.50279494 34.57299484 31.44335938 36.64453125 C33.30796627 40.7575047 35.15745417 44.87710174 37 49 C37.33199402 49.7415332 37.66398804 50.48306641 38.00604248 51.24707031 C38.9967743 53.46484439 39.98174787 55.68508204 40.96484375 57.90625 C41.26999405 58.58884888 41.57514435 59.27144775 41.88954163 59.97473145 C44 64.769699 44 64.769699 44 67 C44.66 67 45.32 67 46 67 C46.16739182 66.46392624 46.33478363 65.92785248 46.50724792 65.37553406 C48.40402083 59.4770121 50.70426309 53.85731315 53.23828125 48.20703125 C53.8431562 46.84429329 53.8431562 46.84429329 54.46025085 45.45402527 C55.74044533 42.57176847 57.02622336 39.6920469 58.3125 36.8125 C59.58364206 33.95769553 60.85359091 31.10236382 62.12301636 28.24679565 C62.94352559 26.40120005 63.76474256 24.55591891 64.58670044 22.71096802 C67.43819972 16.30056464 70.2153369 9.86259422 72.93041992 3.39331055 C74 1 74 1 75 0 C77.53049402 -0.07313567 80.03304837 -0.09247527 82.5625 -0.0625 C83.62887695 -0.05573242 83.62887695 -0.05573242 84.71679688 -0.04882812 C86.47790013 -0.03700864 88.23896036 -0.01907263 90 0 C90.65326808 11.27423076 91.30530254 22.54853212 91.95575714 33.82292557 C92.25781971 39.05792979 92.56030902 44.29290864 92.86376953 49.52783203 C93.15654588 54.57871595 93.44820654 59.62966316 93.73908997 64.68065643 C93.85032828 66.60880587 93.96197029 68.53693206 94.07402039 70.46503448 C94.23075052 73.16315288 94.38605216 75.86134996 94.54101562 78.55957031 C94.61114616 79.75827003 94.61114616 79.75827003 94.68269348 80.98118591 C94.87370234 84.32970495 95 87.64454982 95 91 C90.05 91 85.1 91 80 91 C79.33759294 86.36315057 78.82989303 82.08887803 78.62695312 77.45385742 C78.54181458 75.57237251 78.54181458 75.57237251 78.45495605 73.65287781 C78.42667221 72.99314154 78.39838837 72.33340527 78.36924744 71.65367699 C78.27985917 69.57309614 78.18598431 67.49275961 78.09094238 65.41242981 C77.85602183 60.25307713 77.62756691 55.09344432 77.40106201 49.93371582 C77.20892498 45.55716882 77.01331443 41.18080838 76.81248474 36.80465126 C76.71981502 34.75403579 76.63238761 32.70323772 76.54504395 30.65238953 C76.4599054 28.79454582 76.4599054 28.79454582 76.37304688 26.89916992 C76.32498901 25.80553635 76.27693115 24.71190277 76.22741699 23.58512878 C76.16076945 21.0156123 76.16076945 21.0156123 75 19 C64.11960603 42.90957505 53.3211656 66.84287821 43 91 C40.66870117 90.81469727 40.66870117 90.81469727 38 90 C36.5246582 87.85913086 36.5246582 87.85913086 35.30078125 84.96484375 C34.82213623 83.86358154 34.34349121 82.76231934 33.8503418 81.62768555 C33.342854 80.40992432 32.83536621 79.19216309 32.3125 77.9375 C31.76753357 76.66940148 31.22035844 75.4022502 30.67114258 74.13598633 C29.77699477 72.07312554 28.88469803 70.00960007 27.99913025 67.94303894 C24.25661543 59.21530684 20.33191253 50.56976658 16.42050171 41.91677856 C14.43574705 37.523477 12.45845091 33.12682246 10.48046875 28.73046875 C9.80237729 27.22418005 9.12424127 25.7179114 8.44604492 24.21166992 C7.73025269 22.62189331 7.73025269 22.62189331 7 21 C5.92874231 28.34305766 5.6105046 35.68100794 5.28125 43.08984375 C5.21822015 44.44366826 5.15477738 45.79747359 5.09094238 47.15126038 C4.82216092 52.86790655 4.56119818 58.58490298 4.30224609 64.30200195 C4.14294306 67.81270251 3.97908809 71.32316724 3.81248474 74.83352852 C3.71970751 76.81934895 3.63234737 78.80542004 3.54504395 80.79148865 C3.48828491 81.98685745 3.43152588 83.18222626 3.37304688 84.41381836 C3.32498901 85.47112656 3.27693115 86.52843475 3.22741699 87.61778259 C3 90 3 90 2 91 C-0.31 91 -2.62 91 -5 91 C-3.35 60.97 -1.7 30.94 0 0 Z " fill="#222222" transform="translate(454,903)"/>
<path d="M0 0 C46.73913043 0 46.73913043 0 57 9 C61.57237518 14.25823146 62.3677611 19.37950762 62.26953125 26.1484375 C61.77959109 31.33186234 60.02293053 34.94789259 56.375 38.6484375 C50.92929757 43.11845158 44.53733699 45.53760307 38 48 C38.70125 48.82242188 39.4025 49.64484375 40.125 50.4921875 C44.48006741 55.6121676 48.82597445 60.73029275 53 66 C56.61775293 70.56703934 60.36376846 75.01519496 64.14453125 79.44726562 C65.43437693 80.96086005 66.71733247 82.48031781 68 84 C68.76828125 84.89074219 69.5365625 85.78148437 70.328125 86.69921875 C72 89 72 89 72 92 C66.62890625 92.78125 66.62890625 92.78125 64 93 C62.98329224 93.1710022 62.98329224 93.1710022 61.94604492 93.34545898 C59.39842952 93.61551755 57.49195027 93.62399358 55 93 C52.06981391 90.45272053 50.20881936 87.35151248 48.1875 84.0625 C46.98515806 82.22604959 45.78201852 80.39012114 44.578125 78.5546875 C43.68577148 77.16008301 43.68577148 77.16008301 42.77539062 75.73730469 C40.1148364 71.63525106 37.28088047 67.66393333 34.4375 63.6875 C33.49804864 62.35853166 32.55921474 61.02912654 31.62109375 59.69921875 C31.17749512 59.08739746 30.73389648 58.47557617 30.27685547 57.84521484 C29 56 29 56 27.86767578 54.00244141 C26.61836386 51.77260828 26.61836386 51.77260828 24 49 C21.03 48.67 18.06 48.34 15 48 C15 62.19 15 76.38 15 91 C10.05 91 5.1 91 0 91 C0 60.97 0 30.94 0 0 Z M15 8 C15 19.55 15 31.1 15 43 C29.05050602 43.90792331 29.05050602 43.90792331 41 39 C45.16971111 34.83028889 46.80166308 31.01642537 47.375 25.1875 C47.17140337 18.8280995 44.30833627 13.94332651 39.8125 9.5625 C32.21085272 3.65189714 24.1069549 6.48217418 15 8 Z " fill="#222222" transform="translate(688,903)"/>
<path d="M0 0 C4.95 0 9.9 0 15 0 C15.33 13.86 15.66 27.72 16 42 C18.31 39.525 20.62 37.05 23 34.5 C27.69186154 29.48192319 32.42020368 24.52692428 37.3203125 19.7109375 C39.08779662 17.91056995 40.73260457 16.03986656 42.375 14.125 C43.58309911 12.74979421 44.79145452 11.37481354 46 10 C46.76183594 9.10023438 47.52367187 8.20046875 48.30859375 7.2734375 C54.5947936 0.31056403 54.5947936 0.31056403 58.86328125 -0.6328125 C61.32761908 -0.62584125 63.57212834 -0.37596268 66 0 C61.5021065 5.39190397 56.73873458 10.39391684 51.7578125 15.33984375 C50.98944061 16.10680069 50.22106873 16.87375763 49.42941284 17.66395569 C46.99696491 20.0908474 44.56104678 22.51422127 42.125 24.9375 C40.46591448 26.59156486 38.80705798 28.24585945 37.1484375 29.90039062 C33.10160291 33.93625433 29.05192047 37.96924277 25 42 C26.50462629 45.5312479 28.54467602 47.77666225 31.26611328 50.46142578 C32.58725632 51.77265915 32.58725632 51.77265915 33.93508911 53.11038208 C34.40533634 53.5723914 34.87558357 54.03440071 35.36008072 54.51041031 C36.83521946 55.95996088 38.30396538 57.4157224 39.77120972 58.8732605 C42.88357999 61.96281545 46.00372828 65.04444156 49.125 68.125 C52.74888116 71.70172771 56.36952653 75.28160693 59.98186874 78.8699913 C61.43150157 80.30662541 62.88700945 81.73712492 64.34280396 83.16751099 C65.65449051 84.46928787 65.65449051 84.46928787 66.99267578 85.79736328 C67.76829865 86.56251251 68.54392151 87.32766174 69.3430481 88.11599731 C71 90 71 90 71 92 C56.28065709 94.8293848 56.28065709 94.8293848 51.11474609 91.94873047 C47.60769949 89.02156492 44.90726421 85.44520645 42.25683594 81.74707031 C40.47713802 79.27319341 38.51771624 76.96137753 36.5625 74.625 C35.85996094 73.74972656 35.15742187 72.87445312 34.43359375 71.97265625 C30.86009876 67.60760057 27.14515844 63.36834622 23.42797852 59.12548828 C22.89744873 58.51817871 22.36691895 57.91086914 21.8203125 57.28515625 C21.34867676 56.74769775 20.87704102 56.21023926 20.39111328 55.65649414 C18.85606664 53.82860866 17.43217041 51.90956054 16 50 C15.67 63.53 15.34 77.06 15 91 C10.05 91 5.1 91 0 91 C0 60.97 0 30.94 0 0 Z " fill="#222222" transform="translate(791,903)"/>
<path d="M0 0 C11 0 11 0 14.12890625 2.38671875 C14.9749003 3.4604548 15.78527341 4.56298505 16.5625 5.6875 C17.01318848 6.27619873 17.46387695 6.86489746 17.92822266 7.47143555 C18.86072624 8.69601921 19.77844189 9.93200251 20.68115234 11.17871094 C21.91038384 12.87624277 23.17178536 14.53996963 24.45703125 16.1953125 C26.0945777 18.30639824 27.7198589 20.42356198 29.3359375 22.55078125 C32.30926163 26.43368558 35.40312023 30.21542545 38.5 34 C43.2998884 39.8707407 47.99077968 45.80768428 52.5859375 51.83984375 C55.69774347 55.9133891 58.85286663 59.95368567 62 64 C62.33 42.88 62.66 21.76 63 0 C65.31 0 67.62 0 70 0 C70 30.69 70 61.38 70 93 C64.37522781 91.87504556 64.37522781 91.87504556 62.0546875 88.89453125 C61.54099609 88.24806641 61.02730469 87.60160156 60.49804688 86.93554688 C59.96244141 86.23494141 59.42683594 85.53433594 58.875 84.8125 C58.02131836 83.7287207 58.02131836 83.7287207 57.15039062 82.62304688 C55.42182013 80.42427437 53.71023964 78.21304406 52 76 C50.61040035 74.22522447 49.2167642 72.45368464 47.82275391 70.68237305 C46.93531242 69.55366147 46.0495896 68.42359664 45.16552734 67.29223633 C41.12698709 62.12928835 36.98926444 57.04989966 32.84472656 51.97192383 C28.43533432 46.55986045 24.11439324 41.08414745 19.828125 35.57421875 C15.94583262 30.66773046 11.96195492 25.84238935 8 21 C7.67 44.1 7.34 67.2 7 91 C4.69 91 2.38 91 0 91 C0 60.97 0 30.94 0 0 Z " fill="#222222" transform="translate(1122,903)"/>
<path d="M0 0 C1.37623535 0.00519653 1.37623535 0.00519653 2.78027344 0.01049805 C9.88170768 0.12344704 17.20172654 0.46424122 23.8125 3.3125 C25.043894 7.00668201 24.45682764 9.5181261 23.8125 13.3125 C20.51534071 14.4115531 20.05036647 14.28656139 16.96875 13.1328125 C15.84919922 12.72844971 15.84919922 12.72844971 14.70703125 12.31591797 C13.91683594 12.02604004 13.12664062 11.73616211 12.3125 11.4375 C2.6249515 8.08189645 -5.91924308 5.26104128 -15.70703125 9.8359375 C-26.13473324 16.04329396 -31.97566274 24.71453426 -35.5625 36.1875 C-37.73560622 47.00822479 -37.11147666 60.30325924 -31.65234375 70.0546875 C-30.60784825 71.60044207 -29.52572387 73.12198256 -28.39453125 74.60546875 C-27.1875 76.3125 -27.1875 76.3125 -27.1875 78.3125 C-26.60613281 78.5909375 -26.02476563 78.869375 -25.42578125 79.15625 C-22.63052758 80.60022048 -20.08419346 82.33288051 -17.48046875 84.09375 C-10.85805236 87.61367149 -4.58274497 87.56679706 2.75 87.4375 C7.7309375 87.375625 7.7309375 87.375625 12.8125 87.3125 C12.8125 76.0925 12.8125 64.8725 12.8125 53.3125 C17.4325 53.3125 22.0525 53.3125 26.8125 53.3125 C26.8125 65.5225 26.8125 77.7325 26.8125 90.3125 C5.78279996 96.04787274 -14.80061876 97.29440544 -34.26953125 86.19921875 C-42.8225793 80.66893467 -49.01715425 72.42409974 -51.6796875 62.5390625 C-53.88787295 48.50859188 -53.03242369 34.82643415 -45.4375 22.5625 C-44.38454266 21.1231125 -43.30095054 19.70562004 -42.1875 18.3125 C-41.39472656 17.29736328 -41.39472656 17.29736328 -40.5859375 16.26171875 C-30.48591495 4.80464472 -14.82444419 -0.09065697 0 0 Z " fill="#222222" transform="translate(1275.1875,901.6875)"/>
<path d="M0 0 C1.32 0 2.64 0 4 0 C8.98356158 11.26431739 13.96298368 22.53045359 18.93695068 33.79901123 C21.5882623 39.80503881 24.24307673 45.80949988 26.90078735 51.81269836 C28.54448287 55.52779966 30.1847048 59.24442727 31.82403564 62.9614563 C32.60250734 64.72468438 33.38239465 66.4872882 34.16375732 68.24923706 C35.25880902 70.71918568 36.34871424 73.19134665 37.4375 75.6640625 C37.75546539 76.37801682 38.07343079 77.09197113 38.40103149 77.82756042 C40.58176364 82.8000389 42.34021288 87.82966161 44 93 C38.72 93 33.44 93 28 93 C24.7 85.41 21.4 77.82 18 70 C-1.8 69.505 -1.8 69.505 -22 69 C-22.99 72.3 -23.98 75.6 -25 79 C-26.01755894 81.55999014 -27.0755481 84.1045757 -28.1875 86.625 C-28.59645508 87.55892578 -28.59645508 87.55892578 -29.01367188 88.51171875 C-29.67064373 90.01007562 -30.33453502 91.50539581 -31 93 C-33.97 93 -36.94 93 -40 93 C-36.72596738 84.21963979 -33.13792055 75.6494127 -29.25 67.125 C-28.10616405 64.59910015 -26.96650108 62.07133346 -25.828125 59.54296875 C-25.52741089 58.87525955 -25.22669678 58.20755035 -24.91687012 57.51960754 C-20.87464916 48.52301036 -16.93905683 39.47961073 -13 30.4375 C-12.63733032 29.6061554 -12.27466064 28.77481079 -11.90100098 27.91827393 C-7.8559249 18.64369889 -3.84670845 9.35901393 0 0 Z M-2 21 C-3.61825367 24.76755117 -5.23563944 28.53547371 -6.85229492 32.30371094 C-7.39992042 33.57984964 -7.9477643 34.85589465 -8.49584961 36.13183594 C-10.33707585 40.41846716 -12.17072212 44.70825501 -14 49 C-14.49838379 50.16466797 -14.99676758 51.32933594 -15.51025391 52.52929688 C-15.96706543 53.60759766 -16.42387695 54.68589844 -16.89453125 55.796875 C-17.3016333 56.75432617 -17.70873535 57.71177734 -18.12817383 58.69824219 C-19.11806955 60.90149964 -19.11806955 60.90149964 -19 63 C-7.78 63 3.44 63 15 63 C14.32054688 59.60273441 13.77250362 57.12435759 12.50952148 54.03588867 C12.20928574 53.2954985 11.90904999 52.55510834 11.59971619 51.7922821 C11.27677078 51.0087587 10.95382538 50.22523529 10.62109375 49.41796875 C10.28956802 48.60378983 9.9580423 47.7896109 9.61647034 46.95075989 C8.56095654 44.36129258 7.49932275 41.7743858 6.4375 39.1875 C5.71899531 37.42789999 5.00089179 35.66813612 4.28320312 33.90820312 C2.52677761 29.60355636 0.76486066 25.30119494 -1 21 C-1.33 21 -1.66 21 -2 21 Z " fill="#222222" transform="translate(616,901)"/>
<path d="M0 0 C18.48 0 36.96 0 56 0 C55 9 55 9 54 10 C48.00387639 9.86765771 42.12000991 9.05866455 36.25 7.875 C28.40371279 6.56393992 28.40371279 6.56393992 14 8 C14 18.89 14 29.78 14 41 C24.23 41 34.46 41 45 41 C45 42.98 45 44.96 45 47 C34.77 47 24.54 47 14 47 C14 59.54 14 72.08 14 85 C27.86 83.68 41.72 82.36 56 81 C56 89 56 89 55 91 C36.85 91 18.7 91 0 91 C0 60.97 0 30.94 0 0 Z " fill="#222222" transform="translate(889,903)"/>
<path d="M0 0 C23.43 0 46.86 0 71 0 C70.67 3.63 70.34 7.26 70 11 C64.6575923 10.03450463 59.32360111 9.06472022 54 8 C50.04 8 46.08 8 42 8 C42 35.39 42 62.78 42 91 C37.38 91 32.76 91 28 91 C27.67 63.61 27.34 36.22 27 8 C17.62117948 7.89413113 17.62117948 7.89413113 9 9.5 C3.22222222 11 3.22222222 11 0 11 C0 7.37 0 3.74 0 0 Z " fill="#222222" transform="translate(302,903)"/>
<path d="M0 0 C23.76 0 47.52 0 72 0 C71.67 3.63 71.34 7.26 71 11 C69.0830014 10.68954268 67.16641277 10.37655329 65.25 10.0625 C64.18265625 9.88847656 63.1153125 9.71445312 62.015625 9.53515625 C59.65857781 9.11687197 57.322399 8.58059975 55 8 C51.37 8 47.74 8 44 8 C43.67 35.39 43.34 62.78 43 91 C38.38 91 33.76 91 29 91 C28.67 63.61 28.34 36.22 28 8 C18.62117948 7.89413113 18.62117948 7.89413113 10 9.5 C4.22222222 11 4.22222222 11 1 11 C0.67 7.37 0.34 3.74 0 0 Z " fill="#222222" transform="translate(970,903)"/>
<path d="M0 0 C4.62 0 9.24 0 14 0 C14 30.03 14 60.06 14 91 C9.38 91 4.76 91 0 91 C0 60.97 0 30.94 0 0 Z " fill="#222222" transform="translate(260,903)"/>
<path d="M0 0 C4.29 0 8.58 0 13 0 C13 30.03 13 60.06 13 91 C8.71 91 4.42 91 0 91 C0 60.97 0 30.94 0 0 Z " fill="#222222" transform="translate(1070,903)"/>
<path d="M0 0 C1.4540625 0.0309375 1.4540625 0.0309375 2.9375 0.0625 C4.75288365 3.83195172 6.56431062 7.60329138 8.375 11.375 C8.89126953 12.44685547 9.40753906 13.51871094 9.93945312 14.62304688 C10.43251953 15.65107422 10.92558594 16.67910156 11.43359375 17.73828125 C11.88919678 18.68614502 12.3447998 19.63400879 12.81420898 20.6105957 C13.9375 23.0625 13.9375 23.0625 14.9375 26.0625 C19.33809993 17.5421895 23.24771071 8.9075268 26.9375 0.0625 C29.2475 0.0625 31.5575 0.0625 33.9375 0.0625 C35.0414608 4.11914903 35.28453956 8.12982447 35.5 12.3125 C35.5424585 13.09866699 35.58491699 13.88483398 35.62866211 14.69482422 C36.01643745 22.48622168 36.03312302 30.26391125 35.9375 38.0625 C33.9575 38.0625 31.9775 38.0625 29.9375 38.0625 C28.7485333 35.6845666 28.75150805 34.06760735 28.65625 31.4140625 C28.60017578 30.02960938 28.60017578 30.02960938 28.54296875 28.6171875 C28.50816406 27.65039062 28.47335937 26.68359375 28.4375 25.6875 C28.3684109 23.78371141 28.2956319 21.88005231 28.21875 19.9765625 C28.18845703 19.1304541 28.15816406 18.2843457 28.12695312 17.41259766 C27.97758702 14.75875883 27.97758702 14.75875883 26.9375 11.0625 C22.9775 19.9725 19.0175 28.8825 14.9375 38.0625 C13.9475 38.0625 12.9575 38.0625 11.9375 38.0625 C7.9775 29.1525 4.0175 20.2425 -0.0625 11.0625 C-0.7225 19.9725 -1.3825 28.8825 -2.0625 38.0625 C-3.3825 38.0625 -4.7025 38.0625 -6.0625 38.0625 C-5.80196005 32.81112194 -5.53532381 27.56010322 -5.26293945 22.30932617 C-5.17107625 20.521652 -5.08090334 18.73389015 -4.99243164 16.94604492 C-4.86524722 14.3817512 -4.7320609 11.81783037 -4.59765625 9.25390625 C-4.55906998 8.4497377 -4.5204837 7.64556915 -4.48072815 6.81703186 C-4.11743154 0.08402922 -4.11743154 0.08402922 0 0 Z " fill="#9F7222" transform="translate(1255.0625,1035.9375)"/>
<path d="M0 0 C18 0 18 0 24 3 C26 5 26 5 26.3125 8.875 C26.2447898 11.73966214 26.04049306 12.92637626 24.625 15.5 C23 17 23 17 21 17 C21 17.66 21 18.32 21 19 C21.78375 19.28875 22.5675 19.5775 23.375 19.875 C26 21 26 21 28 23 C28.62877494 26.07736964 28.62186209 28.92257992 28 32 C25.64726975 35.16913507 22.73051052 36.75649649 19 38 C12.73 38 6.46 38 0 38 C0 25.46 0 12.92 0 0 Z M7 4 C7 8.29 7 12.58 7 17 C12.59887581 17.55046364 12.59887581 17.55046364 17.4375 15.25 C19.47036653 12.3705102 19.47036653 12.3705102 20 9 C18.23136411 5.30240822 18.23136411 5.30240822 15 3 C10.85496339 2.75212983 10.85496339 2.75212983 7 4 Z M7 20 C7 24.95 7 29.9 7 35 C12.57836365 36.11567273 14.09252385 35.50003502 19 33 C21.25414188 31.12747383 21.25414188 31.12747383 21.5 28.1875 C20.92977188 24.55229576 19.80531026 23.10242132 16.8671875 20.90234375 C13.546085 19.29737581 10.62568679 19.68744079 7 20 Z " fill="#9F7222" transform="translate(369,1036)"/>
<path d="M0 0 C4.51572304 3.77630152 8.81275974 7.67609428 12.9375 11.875 C13.43056641 12.37257813 13.92363281 12.87015625 14.43164062 13.3828125 C15.62345992 14.58620285 16.81208678 15.79275365 18 17 C14.43972036 21.3098122 10.73018041 25.45091999 6.875 29.5 C6.04742188 30.3765625 5.21984375 31.253125 4.3671875 32.15625 C2 34 2 34 0.07006836 33.80395508 C-3.82079225 32.2928566 -6.41142707 29.10028261 -9.3125 26.1875 C-9.97056641 25.55779297 -10.62863281 24.92808594 -11.30664062 24.27929688 C-11.92345703 23.66505859 -12.54027344 23.05082031 -13.17578125 22.41796875 C-13.74208252 21.85875732 -14.30838379 21.2995459 -14.8918457 20.72338867 C-16 19 -16 19 -15.88769531 17.01586914 C-14.81516007 14.58024661 -13.52617659 13.18518054 -11.62109375 11.328125 C-10.94755859 10.66425781 -10.27402344 10.00039063 -9.58007812 9.31640625 C-8.87302734 8.63449219 -8.16597656 7.95257812 -7.4375 7.25 C-6.72658203 6.55261719 -6.01566406 5.85523438 -5.28320312 5.13671875 C-3.52869286 3.4175342 -1.76756648 1.70574128 0 0 Z " fill="#9F7222" transform="translate(781,513)"/>
<path d="M0 0 C4.51572304 3.77630152 8.81275974 7.67609428 12.9375 11.875 C13.43056641 12.37257813 13.92363281 12.87015625 14.43164062 13.3828125 C15.62345992 14.58620285 16.81208678 15.79275365 18 17 C14.43972036 21.3098122 10.73018041 25.45091999 6.875 29.5 C6.04742188 30.3765625 5.21984375 31.253125 4.3671875 32.15625 C2 34 2 34 0.07006836 33.80395508 C-3.82079225 32.2928566 -6.41142707 29.10028261 -9.3125 26.1875 C-9.97056641 25.55779297 -10.62863281 24.92808594 -11.30664062 24.27929688 C-11.92345703 23.66505859 -12.54027344 23.05082031 -13.17578125 22.41796875 C-13.74208252 21.85875732 -14.30838379 21.2995459 -14.8918457 20.72338867 C-16 19 -16 19 -15.88769531 17.01586914 C-14.81516007 14.58024661 -13.52617659 13.18518054 -11.62109375 11.328125 C-10.94755859 10.66425781 -10.27402344 10.00039063 -9.58007812 9.31640625 C-8.87302734 8.63449219 -8.16597656 7.95257813 -7.4375 7.25 C-6.72658203 6.55261719 -6.01566406 5.85523438 -5.28320312 5.13671875 C-3.52869286 3.4175342 -1.76756648 1.70574128 0 0 Z " fill="#9F7222" transform="translate(781,474)"/>
<path d="M0 0 C4.39241289 4.39241289 5.81043931 8.68735964 6.3125 14.8125 C6.12390963 20.29209806 5.07351753 25.59881551 1.41796875 29.83203125 C-4.64444336 35.26046563 -10.06933328 36.46459816 -18.12109375 36.31640625 C-23.23038784 35.75486918 -25.75100833 33.24899167 -29.25 29.75 C-32.95783441 23.92340307 -33.49595208 18.17234314 -32.59765625 11.4609375 C-31.42605049 6.6366785 -29.21259087 2.70770436 -25.25390625 -0.34765625 C-16.77598373 -5.43440976 -8.18292158 -5.58257095 0 0 Z M-22 4 C-25.55399162 9.71177225 -26.54719575 15.05181483 -25.25 21.625 C-23.96001534 26.7070201 -22.45270214 30.0315319 -18 33 C-13.07226739 33.56547751 -11.00272007 33.58649665 -6.6875 31.0625 C-2.47969279 26.95816346 -1.09814035 21.94829967 -0.90625 16.18359375 C-1.22557928 10.31591821 -2.12066083 6.44983023 -6 2 C-11.79827422 -1.86551614 -17.38189407 -1.01394358 -22 4 Z " fill="#9F7222" transform="translate(1006,1039)"/>
<path d="M0 0 C4.39241289 4.39241289 5.81043931 8.68735964 6.3125 14.8125 C6.12390963 20.29209806 5.07351753 25.59881551 1.41796875 29.83203125 C-4.64444336 35.26046563 -10.06933328 36.46459816 -18.12109375 36.31640625 C-23.23038784 35.75486918 -25.75100833 33.24899167 -29.25 29.75 C-32.95783441 23.92340307 -33.49595208 18.17234314 -32.59765625 11.4609375 C-31.42605049 6.6366785 -29.21259087 2.70770436 -25.25390625 -0.34765625 C-16.77598373 -5.43440976 -8.18292158 -5.58257095 0 0 Z M-22 4 C-25.55399162 9.71177225 -26.54719575 15.05181483 -25.25 21.625 C-23.96001534 26.7070201 -22.45270214 30.0315319 -18 33 C-13.07226739 33.56547751 -11.00272007 33.58649665 -6.6875 31.0625 C-2.47969279 26.95816346 -1.09814035 21.94829967 -0.90625 16.18359375 C-1.22557928 10.31591821 -2.12066083 6.44983023 -6 2 C-11.79827422 -1.86551614 -17.38189407 -1.01394358 -22 4 Z " fill="#9F7222" transform="translate(714,1039)"/>
<path d="M0 0 C3.56609084 2.45119326 5.41158928 5.16054909 6.76171875 9.2109375 C8.02939536 24.47738583 8.02939536 24.47738583 3.2578125 30.6953125 C-1.77519464 35.7940247 -6.54494363 37.3280421 -13.48828125 37.5859375 C-19.23837199 37.53212649 -22.96991697 36.04931914 -27.23828125 32.2109375 C-31.37807879 26.7357214 -31.85319269 20.88711888 -31.23828125 14.2109375 C-30.02132778 9.19995261 -28.06005526 4.7387289 -24.23828125 1.2109375 C-15.94341693 -3.2827279 -8.50576543 -4.712428 0 0 Z M-21.23828125 6.2109375 C-24.33756127 11.7803204 -25.10865551 17.24365018 -23.734375 23.5078125 C-22.66590719 27.24439707 -21.59357887 29.79473172 -19.05078125 32.7734375 C-15.37456905 34.6523904 -12.23058469 35.11721382 -8.23828125 34.2109375 C-3.93358639 31.90248575 -1.67756501 28.82318775 -0.23828125 24.2109375 C0.37864131 18.14214113 0.9742984 11.48953101 -1.98828125 5.9609375 C-5.1957624 2.04068276 -6.64023459 1.4180917 -11.61328125 0.7734375 C-16.04186155 1.30792133 -18.50922159 2.7872081 -21.23828125 6.2109375 Z " fill="#9F7222" transform="translate(268.23828125,1037.7890625)"/>
<path d="M0 0 C18 0 18 0 24 3 C26.37040308 5.37040308 26.34465793 6.06302753 26.4375 9.3125 C26.36492448 13.07433087 26.13454945 13.82908584 23.6875 16.9375 C21.83925077 18.35592383 19.9385078 19.70766147 18 21 C19.22836068 22.54230894 20.45773247 24.08381259 21.6875 25.625 C22.41324219 26.53507812 23.13898438 27.44515625 23.88671875 28.3828125 C25.55937514 30.45430933 27.26070859 32.4850284 29 34.5 C31 37 31 37 31 39 C27.97447707 39.38429678 25.9294422 39.62503614 23 39 C20.45995082 36.91673028 18.82603839 34.37441405 17.0625 31.625 C16.58232422 30.92632813 16.10214844 30.22765625 15.60742188 29.5078125 C13.93671304 27.05712536 12.32718371 24.65436742 11 22 C9.68 21.67 8.36 21.34 7 21 C7 26.61 7 32.22 7 38 C4.69 38 2.38 38 0 38 C0 25.46 0 12.92 0 0 Z M7 4 C7 8.62 7 13.24 7 18 C8.423125 17.896875 9.84625 17.79375 11.3125 17.6875 C12.11300781 17.62949219 12.91351562 17.57148437 13.73828125 17.51171875 C16.39625338 16.91034682 17.31371684 16.09871774 19 14 C20.0146239 12.1935345 20.0146239 12.1935345 20 10 C18.40485216 5.71388753 18.40485216 5.71388753 15 3 C10.85496339 2.75212983 10.85496339 2.75212983 7 4 Z " fill="#9F7222" transform="translate(1055,1036)"/>
<path d="M0 0 C18 0 18 0 25 4 C26.61804766 7.23609533 26.72254028 10.51441219 26 14 C23.58695088 17.06212879 20.21614583 18.85590278 17 21 C17.60328125 21.66386719 18.2065625 22.32773438 18.828125 23.01171875 C19.62734375 23.89472656 20.4265625 24.77773437 21.25 25.6875 C22.03890625 26.55761719 22.8278125 27.42773438 23.640625 28.32421875 C30 35.53642384 30 35.53642384 30 39 C26.93799693 39.41574611 24.95553307 39.67207646 22 39 C19.40914235 36.75169801 17.76947298 34.04089209 16 31.125 C15.51144531 30.37863281 15.02289062 29.63226562 14.51953125 28.86328125 C11 23.39174107 11 23.39174107 11 21 C9.35 21 7.7 21 6 21 C6 26.61 6 32.22 6 38 C4.02 38 2.04 38 0 38 C0 25.46 0 12.92 0 0 Z M6 4 C6 8.62 6 13.24 6 18 C12.87695403 18.16952361 12.87695403 18.16952361 18 15 C19.36997745 13.84254513 19.36997745 13.84254513 19.3125 10.6875 C19.30090201 7.02668938 19.30090201 7.02668938 17.375 4.5625 C13.47691458 1.99797012 10.28571025 2.57142992 6 4 Z " fill="#9F7222" transform="translate(1146,1036)"/>
<path d="M0 0 C18 0 18 0 25 4 C26.61804766 7.23609533 26.72254028 10.51441219 26 14 C23.58695088 17.06212879 20.21614583 18.85590278 17 21 C17.60328125 21.66386719 18.2065625 22.32773438 18.828125 23.01171875 C19.62734375 23.89472656 20.4265625 24.77773437 21.25 25.6875 C22.03890625 26.55761719 22.8278125 27.42773438 23.640625 28.32421875 C30 35.53642384 30 35.53642384 30 39 C26.93799693 39.41574611 24.95553307 39.67207646 22 39 C19.40914235 36.75169801 17.76947298 34.04089209 16 31.125 C15.51144531 30.37863281 15.02289063 29.63226562 14.51953125 28.86328125 C11 23.39174107 11 23.39174107 11 21 C9.35 21 7.7 21 6 21 C6 26.61 6 32.22 6 38 C4.02 38 2.04 38 0 38 C0 25.46 0 12.92 0 0 Z M6 4 C6 8.62 6 13.24 6 18 C12.87695403 18.16952361 12.87695403 18.16952361 18 15 C19.36997745 13.84254513 19.36997745 13.84254513 19.3125 10.6875 C19.30090201 7.02668938 19.30090201 7.02668938 17.375 4.5625 C13.47691458 1.99797012 10.28571025 2.57142992 6 4 Z " fill="#9F7222" transform="translate(319,1036)"/>
<path d="M0 0 C21.81875 0 21.81875 0 26.98828125 4.875 C32.40960948 10.78522556 33.36395221 15.01639703 33.27734375 22.984375 C32.86662663 27.45020062 31.78825234 29.47799704 29 33 C24.47861818 36.50637774 21.02444685 38.13391367 15.33203125 38.09765625 C14.52741455 38.09515869 13.72279785 38.09266113 12.89379883 38.09008789 C11.36855591 38.07643188 11.36855591 38.07643188 9.8125 38.0625 C4.9553125 38.0315625 4.9553125 38.0315625 0 38 C0 25.46 0 12.92 0 0 Z M6 4 C6 14.23 6 24.46 6 35 C12.29639056 36.04939843 15.43425081 35.77229332 21 33 C25.0504573 28.9495427 26.16863425 25.43993524 26.375 19.8125 C26.3211718 14.00674369 24.83903873 10.32687238 21 6 C16.874883 2.43233124 11.02650592 1.48674704 6 4 Z " fill="#9F7222" transform="translate(1106,1036)"/>
<path d="M0 0 C2.31 0 4.62 0 7 0 C7.01458252 0.8878418 7.02916504 1.77568359 7.04418945 2.69042969 C7.10534534 5.99327962 7.17951378 9.29530915 7.26245117 12.59765625 C7.29564794 14.02527914 7.32369631 15.45303163 7.34643555 16.88085938 C7.38008013 18.93675815 7.43239562 20.99147512 7.48828125 23.046875 C7.51446533 24.28276367 7.54064941 25.51865234 7.56762695 26.79199219 C8.02692142 30.19974447 8.55192135 31.6264948 11 34 C15.16272468 35.17812963 17.32139538 35.2639018 21.375 33.6875 C24.08089128 32.2636664 24.08089128 32.2636664 25 30 C25.15495763 27.75025839 25.25010928 25.49628464 25.31640625 23.2421875 C25.33718735 22.57913605 25.35796844 21.91608459 25.37937927 21.23294067 C25.44479231 19.11373306 25.50372105 16.994401 25.5625 14.875 C25.60569309 13.43878919 25.64930764 12.00259098 25.69335938 10.56640625 C25.80046499 7.04440406 25.90175575 3.52226175 26 0 C27.32 0 28.64 0 30 0 C30.07455949 4.02009457 30.12879358 8.03991733 30.16479492 12.06054688 C30.17981428 13.42617816 30.20023608 14.79176176 30.22631836 16.15722656 C30.26300137 18.12803905 30.27818551 20.09921408 30.29296875 22.0703125 C30.3086792 23.25383301 30.32438965 24.43735352 30.34057617 25.65673828 C29.83133181 30.65572914 28.14087564 33.88837758 24.5625 37.375 C19.46206568 39.7015139 14.52460923 39.82534539 9 39 C4.20708951 36.56625903 1.70896253 34.1268876 0 29 C-0.08358958 26.78910055 -0.10731764 24.57573922 -0.09765625 22.36328125 C-0.09443359 21.06455078 -0.09121094 19.76582031 -0.08789062 18.42773438 C-0.07953531 17.05598892 -0.07107037 15.68424413 -0.0625 14.3125 C-0.05748335 12.92903805 -0.05292073 11.54557437 -0.04882812 10.16210938 C-0.03702529 6.77469605 -0.02056019 3.38736967 0 0 Z " fill="#9F7222" transform="translate(1017,1036)"/>
<path d="M0 0 C2.31 0 4.62 0 7 0 C7.01458252 0.92337158 7.02916504 1.84674316 7.04418945 2.7980957 C7.10526308 6.22577204 7.1794161 9.65264662 7.26245117 13.07983398 C7.29569423 14.56279854 7.32372823 16.04588944 7.34643555 17.52905273 C7.37999468 19.66184293 7.43230638 21.79347612 7.48828125 23.92578125 C7.51446533 25.20880127 7.54064941 26.49182129 7.56762695 27.8137207 C7.74482972 30.94165883 7.74482972 30.94165883 9.32104492 32.89135742 C12.11098156 34.73360001 14.71031529 34.82984389 18 35 C20.91472751 34.28751105 22.42823936 33.85500207 24.11083984 31.33886719 C25.28359695 28.2540201 25.32728028 25.56334936 25.4140625 22.265625 C25.45273437 20.97011719 25.49140625 19.67460938 25.53125 18.33984375 C25.56270267 16.97656716 25.59395007 15.61328582 25.625 14.25 C25.66320469 12.87106972 25.70225787 11.49216266 25.7421875 10.11328125 C25.83648004 6.74232282 25.9220822 3.37137022 26 0 C27.32 0 28.64 0 30 0 C30.05840224 4.18744075 30.09373166 8.37477565 30.125 12.5625 C30.14175781 13.74392578 30.15851562 14.92535156 30.17578125 16.14257812 C30.25531796 30.33988138 30.25531796 30.33988138 25.5625 35.875 C20.63034472 39.96507999 15.12767228 39.47338241 9 39 C5.00661629 37.71641238 3.54997445 36.89664935 1.36206055 33.32958984 C-0.17753532 29.56601064 -0.34493098 26.90461609 -0.29296875 22.8515625 C-0.28872391 22.19417084 -0.28447906 21.53677917 -0.28010559 20.85946655 C-0.26344977 18.78087609 -0.2258262 16.70329226 -0.1875 14.625 C-0.17243605 13.20704536 -0.15875065 11.78907536 -0.14648438 10.37109375 C-0.11359038 6.9137411 -0.06190165 3.45696897 0 0 Z " fill="#9F7222" transform="translate(767,1036)"/>
<path d="M0 0 C2.31 0 4.62 0 7 0 C7.01458252 0.92337158 7.02916504 1.84674316 7.04418945 2.7980957 C7.10526308 6.22577204 7.1794161 9.65264662 7.26245117 13.07983398 C7.29569423 14.56279854 7.32372823 16.04588944 7.34643555 17.52905273 C7.37999468 19.66184293 7.43230638 21.79347612 7.48828125 23.92578125 C7.51446533 25.20880127 7.54064941 26.49182129 7.56762695 27.8137207 C7.74482972 30.94165883 7.74482972 30.94165883 9.32104492 32.89135742 C12.11098156 34.73360001 14.71031529 34.82984389 18 35 C20.91472751 34.28751105 22.42823936 33.85500207 24.11083984 31.33886719 C25.28359695 28.2540201 25.32728028 25.56334936 25.4140625 22.265625 C25.45273437 20.97011719 25.49140625 19.67460938 25.53125 18.33984375 C25.56270267 16.97656716 25.59395007 15.61328582 25.625 14.25 C25.66320469 12.87106972 25.70225787 11.49216266 25.7421875 10.11328125 C25.83648004 6.74232282 25.9220822 3.37137022 26 0 C27.32 0 28.64 0 30 0 C30.05840224 4.18744075 30.09373166 8.37477565 30.125 12.5625 C30.14175781 13.74392578 30.15851563 14.92535156 30.17578125 16.14257812 C30.25531796 30.33988138 30.25531796 30.33988138 25.5625 35.875 C20.63034472 39.96507999 15.12767228 39.47338241 9 39 C5.00661629 37.71641238 3.54997445 36.89664935 1.36206055 33.32958984 C-0.17753532 29.56601064 -0.34493098 26.90461609 -0.29296875 22.8515625 C-0.28872391 22.19417084 -0.28447906 21.53677917 -0.28010559 20.85946655 C-0.26344977 18.78087609 -0.2258262 16.70329226 -0.1875 14.625 C-0.17243605 13.20704536 -0.15875065 11.78907536 -0.14648438 10.37109375 C-0.11359038 6.9137411 -0.06190165 3.45696897 0 0 Z " fill="#9F7222" transform="translate(281,1036)"/>
<path d="M0 0 C3 1 3 1 4.48632812 3.6328125 C4.99615234 4.78523438 5.50597656 5.93765625 6.03125 7.125 C6.30843872 7.74592529 6.58562744 8.36685059 6.87121582 9.0065918 C7.45771858 10.32591337 8.03908659 11.64752765 8.61572266 12.97119141 C9.48650522 14.96903875 10.37251225 16.95951406 11.26171875 18.94921875 C14.18340752 25.53417943 16.88296456 32.10451313 19 39 C16.69 39 14.38 39 12 39 C11.32845067 37.71086513 10.66291141 36.41859796 10 35.125 C9.62875 34.40570312 9.2575 33.68640625 8.875 32.9453125 C8 31 8 31 8 29 C2.72 29.33 -2.56 29.66 -8 30 C-9.32 32.97 -10.64 35.94 -12 39 C-13.32 39 -14.64 39 -16 39 C-15.33076442 34.35495067 -13.52998135 30.31764299 -11.62109375 26.07421875 C-11.28956802 25.32662796 -10.9580423 24.57903717 -10.61647034 23.80879211 C-9.56155297 21.43288665 -8.49964087 19.06018371 -7.4375 16.6875 C-6.71893648 15.07247224 -6.00083235 13.45724 -5.28320312 11.84179688 C-3.52744776 7.89214296 -1.76541458 3.94534533 0 0 Z M-1 11 C-2.98 15.95 -4.96 20.9 -7 26 C-2.71 26 1.58 26 6 26 C3.8092006 18.39230548 3.8092006 18.39230548 1 11 C0.34 11 -0.32 11 -1 11 Z " fill="#9F7222" transform="translate(1226,1035)"/>
<path d="M0 0 C7.92 0 15.84 0 24 0 C23.67 1.65 23.34 3.3 23 5 C18.05 4.67 13.1 4.34 8 4 C7.67 8.29 7.34 12.58 7 17 C10.96 17 14.92 17 19 17 C19 17.99 19 18.98 19 20 C15.04 20 11.08 20 7 20 C7 24.95 7 29.9 7 35 C8.7015625 34.7525 8.7015625 34.7525 10.4375 34.5 C14.97060294 33.92423916 19.43747238 33.90494734 24 34 C24 35.32 24 36.64 24 38 C16.08 38 8.16 38 0 38 C0 25.46 0 12.92 0 0 Z " fill="#9F7222" transform="translate(1182,1036)"/>
<path d="M0 0 C7.92 0 15.84 0 24 0 C23.67 1.65 23.34 3.3 23 5 C18.05 4.67 13.1 4.34 8 4 C7.67 8.29 7.34 12.58 7 17 C10.96 17 14.92 17 19 17 C19 17.99 19 18.98 19 20 C15.04 20 11.08 20 7 20 C7 24.95 7 29.9 7 35 C8.7015625 34.7525 8.7015625 34.7525 10.4375 34.5 C14.97060294 33.92423916 19.43747238 33.90494734 24 34 C24 35.32 24 36.64 24 38 C16.08 38 8.16 38 0 38 C0 25.46 0 12.92 0 0 Z " fill="#9F7222" transform="translate(481,1036)"/>
<path d="M0 0 C0 1.65 0 3.3 0 5 C-1.175625 4.67 -2.35125 4.34 -3.5625 4 C-7.5011676 3.0030467 -10.95139129 2.83130797 -15 3 C-15.67166707 5.74303896 -15.67166707 5.74303896 -15 9 C-12.62437283 11.41274635 -9.82475459 13.15194022 -7 15 C-5.53205295 16.02807442 -4.0732294 17.06933095 -2.625 18.125 C-1.97789062 18.58132813 -1.33078125 19.03765625 -0.6640625 19.5078125 C1.2452174 21.21988979 2.09543764 22.60773103 3 25 C2.9188061 29.4656646 2.47785505 31.43637609 -0.4375 34.875 C-5.51694291 39.08722095 -10.61619216 38.35742674 -17 38 C-20.75 37 -20.75 37 -23 36 C-23 34.68 -23 33.36 -23 32 C-21.989375 32.33 -20.97875 32.66 -19.9375 33 C-16.18577514 34.0480527 -12.91043509 34.44269076 -9 34 C-6.39279682 32.47722993 -6.39279682 32.47722993 -5 30 C-4.99795174 27.50589457 -4.99795174 27.50589457 -6 25 C-8.10213915 23.02703575 -8.10213915 23.02703575 -10.75 21.4375 C-12.10158203 20.54804687 -12.10158203 20.54804687 -13.48046875 19.640625 C-14.31191406 19.09921875 -15.14335938 18.5578125 -16 18 C-20.81967213 14.36065574 -20.81967213 14.36065574 -22 12 C-22.69948799 4.88853879 -22.69948799 4.88853879 -19.6875 1.0625 C-13.64145046 -3.5774915 -6.7333191 -2.69332764 0 0 Z " fill="#9F7222" transform="translate(630,1037)"/>
<path d="M0 0 C0 1.65 0 3.3 0 5 C-1.175625 4.67 -2.35125 4.34 -3.5625 4 C-7.5011676 3.0030467 -10.95139129 2.83130797 -15 3 C-15.67166707 5.74303896 -15.67166707 5.74303896 -15 9 C-12.62388285 11.41324398 -9.82220304 13.14718312 -7 15 C-5.51238143 16.07169777 -4.03276339 17.1546139 -2.5625 18.25 C-1.57443359 18.96929688 -1.57443359 18.96929688 -0.56640625 19.703125 C1.4069566 21.33693165 1.925804 22.46048908 2.2734375 24.98828125 C2.46972622 29.48027315 2.51482633 31.34969305 -0.375 35 C-5.59858949 38.97987771 -10.60692021 38.35794587 -17 38 C-20.75 37 -20.75 37 -23 36 C-22.67 34.68 -22.34 33.36 -22 32 C-21.154375 32.33 -20.30875 32.66 -19.4375 33 C-15.67809033 34.09364645 -12.89262779 34.4325142 -9 34 C-6.39279682 32.47722993 -6.39279682 32.47722993 -5 30 C-5.04465342 27.48310432 -5.04465342 27.48310432 -6 25 C-7.80772686 23.32078008 -7.80772686 23.32078008 -10.125 22.0625 C-21.19426336 15.14863103 -21.19426336 15.14863103 -23.125 10 C-22.96577383 6.17857193 -22.17191731 4.15278319 -20 1 C-13.3658635 -3.52327489 -7.17538373 -2.34298244 0 0 Z " fill="#9F7222" transform="translate(1322,1037)"/>
<path d="M0 0 C7.92 0 15.84 0 24 0 C23.67 1.65 23.34 3.3 23 5 C21.41058594 4.89171875 21.41058594 4.89171875 19.7890625 4.78125 C18.40104403 4.68746497 17.01302307 4.59371689 15.625 4.5 C14.57699219 4.42845703 14.57699219 4.42845703 13.5078125 4.35546875 C9.7572219 4.09344214 9.7572219 4.09344214 6 4 C6 8.29 6 12.58 6 17 C10.29 17 14.58 17 19 17 C19 17.99 19 18.98 19 20 C14.71 20 10.42 20 6 20 C6 24.95 6 29.9 6 35 C7.9490625 34.7525 7.9490625 34.7525 9.9375 34.5 C14.65419287 33.9684362 19.25638935 33.92470459 24 34 C24 35.32 24 36.64 24 38 C16.08 38 8.16 38 0 38 C0 25.46 0 12.92 0 0 Z " fill="#9F7222" transform="translate(547,1036)"/>
<path d="M0 0 C7.92 0 15.84 0 24 0 C23.67 1.65 23.34 3.3 23 5 C21.41058594 4.89171875 21.41058594 4.89171875 19.7890625 4.78125 C18.40104403 4.68746497 17.01302307 4.59371689 15.625 4.5 C14.57699219 4.42845703 14.57699219 4.42845703 13.5078125 4.35546875 C9.7572219 4.09344214 9.7572219 4.09344214 6 4 C6 8.29 6 12.58 6 17 C10.29 17 14.58 17 19 17 C19 17.99 19 18.98 19 20 C14.71 20 10.42 20 6 20 C6 24.95 6 29.9 6 35 C7.9490625 34.7525 7.9490625 34.7525 9.9375 34.5 C14.65419287 33.9684362 19.25638935 33.92470459 24 34 C24 35.32 24 36.64 24 38 C16.08 38 8.16 38 0 38 C0 25.46 0 12.92 0 0 Z " fill="#9F7222" transform="translate(406,1036)"/>
<path d="M0 0 C2.64 0 5.28 0 8 0 C11.63 8.91 15.26 17.82 19 27 C20.91154063 24.13268906 21.97326363 21.6721882 23.1640625 18.45703125 C23.56367187 17.38388672 23.96328125 16.31074219 24.375 15.20507812 C24.7875 14.08552734 25.2 12.96597656 25.625 11.8125 C26.25535156 10.11577148 26.25535156 10.11577148 26.8984375 8.38476562 C27.9357466 5.59110361 28.96945182 2.7961616 30 0 C31.32 0 32.64 0 34 0 C31.69842556 8.44033773 28.55104064 16.511516 25.3125 24.625 C24.79584522 25.92823533 24.27956658 27.23161985 23.76367188 28.53515625 C22.51279075 31.69158526 21.25815732 34.84646588 20 38 C18.68 38 17.36 38 16 38 C13.71904682 32.74994038 11.44044742 27.49886817 9.1640625 22.24682617 C8.38867428 20.45878224 7.61263361 18.67102111 6.8359375 16.88354492 C5.72225688 14.32023283 4.61089562 11.75592631 3.5 9.19140625 C3.15001953 8.3872377 2.80003906 7.58306915 2.43945312 6.75453186 C0 1.11387171 0 1.11387171 0 0 Z " fill="#9F7222" transform="translate(508,1036)"/>
<path d="M0 0 C7.59 0 15.18 0 23 0 C23 1.65 23 3.3 23 5 C18.05 4.67 13.1 4.34 8 4 C7.67 8.29 7.34 12.58 7 17 C10.96 17 14.92 17 19 17 C19 17.99 19 18.98 19 20 C15.04 20 11.08 20 7 20 C7 25.94 7 31.88 7 38 C4.69 38 2.38 38 0 38 C0 25.46 0 12.92 0 0 Z " fill="#9F7222" transform="translate(740,1036)"/>
<path d="M0 0 C2.31 0 4.62 0 7 0 C10.3 6.27 13.6 12.54 17 19 C19.97 12.73 22.94 6.46 26 0 C27.32 0 28.64 0 30 0 C28.49631478 5.0417681 26.73213502 9.59826113 24.33447266 14.29052734 C20.26131623 22.34356181 18.90141635 28.85988772 19 38 C17.02 38 15.04 38 13 38 C13.06703125 37.24460937 13.1340625 36.48921875 13.203125 35.7109375 C13.37675232 23.35446 7.30808253 14.33008833 1.08569336 4.02441406 C0 2 0 2 0 0 Z " fill="#9F7222" transform="translate(941,1036)"/>
<path d="M0 0 C7.59 0 15.18 0 23 0 C23 1.65 23 3.3 23 5 C21.41058594 4.89171875 21.41058594 4.89171875 19.7890625 4.78125 C18.40104403 4.68746497 17.01302307 4.59371689 15.625 4.5 C14.57699219 4.42845703 14.57699219 4.42845703 13.5078125 4.35546875 C9.7572219 4.09344214 9.7572219 4.09344214 6 4 C6 8.29 6 12.58 6 17 C9.96 17 13.92 17 18 17 C18 17.99 18 18.98 18 20 C14.04 20 10.08 20 6 20 C6 25.94 6 31.88 6 38 C4.02 38 2.04 38 0 38 C0 25.46 0 12.92 0 0 Z " fill="#9F7222" transform="translate(833,1036)"/>
<path d="M0 0 C9.9 0 19.8 0 30 0 C30 1.65 30 3.3 30 5 C24.555 4.505 24.555 4.505 19 4 C18.67 15.22 18.34 26.44 18 38 C16.02 38 14.04 38 12 38 C11.67 26.78 11.34 15.56 11 4 C7.37 4.33 3.74 4.66 0 5 C0 3.35 0 1.7 0 0 Z " fill="#9F7222" transform="translate(650,1036)"/>
<path d="M0 0 C2.31 0 4.62 0 7 0 C7 11.55 7 23.1 7 35 C14.92 34.505 14.92 34.505 23 34 C22.67 35.32 22.34 36.64 22 38 C14.74 38 7.48 38 0 38 C0 25.46 0 12.92 0 0 Z " fill="#9F7222" transform="translate(875,1036)"/>
<path d="M0 0 C2.31 0 4.62 0 7 0 C7 11.55 7 23.1 7 35 C11.95 34.67 16.9 34.34 22 34 C22 35.32 22 36.64 22 38 C14.74 38 7.48 38 0 38 C0 25.46 0 12.92 0 0 Z " fill="#9F7222" transform="translate(903,1036)"/>
<path d="M0 0 C1.98 0 3.96 0 6 0 C6 11.55 6 23.1 6 35 C13.92 34.505 13.92 34.505 22 34 C22 35.32 22 36.64 22 38 C14.74 38 7.48 38 0 38 C0 25.46 0 12.92 0 0 Z " fill="#9F7222" transform="translate(805,1036)"/>
<path d="M0 0 C1.98 0 3.96 0 6 0 C6 11.55 6 23.1 6 35 C13.92 34.505 13.92 34.505 22 34 C22 35.32 22 36.64 22 38 C14.74 38 7.48 38 0 38 C0 25.46 0 12.92 0 0 Z " fill="#9F7222" transform="translate(438,1036)"/>
<path d="M0 0 C1.98 0 3.96 0 6 0 C6 12.54 6 25.08 6 38 C4.02 38 2.04 38 0 38 C0 25.46 0 12.92 0 0 Z " fill="#9F7222" transform="translate(860,1036)"/>
<path d="M0 0 C1.98 0 3.96 0 6 0 C6 12.54 6 25.08 6 38 C4.02 38 2.04 38 0 38 C0 25.46 0 12.92 0 0 Z " fill="#9F7222" transform="translate(593,1036)"/>
<path d="M0 0 C1.98 0 3.96 0 6 0 C6 12.54 6 25.08 6 38 C4.02 38 2.04 38 0 38 C0 25.46 0 12.92 0 0 Z " fill="#9F7222" transform="translate(466,1036)"/>
</svg>
